<svg width="24" height="25" viewBox="0 0 24 25" fill="none" xmlns="http://www.w3.org/2000/svg">
<path d="M20 22.8462H4C2.9 22.8462 2 21.9462 2 20.8462V6.84619C2 5.74619 2.9 4.84619 4 4.84619H20C21.1 4.84619 22 5.74619 22 6.84619V20.8462C22 21.9462 21.1 22.8462 20 22.8462Z" stroke="#221B38" stroke-miterlimit="10" stroke-linecap="round"/>
<path d="M20 22.8462H4C2.9 22.8462 2 21.9462 2 20.8462V10.8462H22V20.8462C22 21.9462 21.1 22.8462 20 22.8462Z" stroke="#221B38" stroke-miterlimit="10" stroke-linecap="round"/>
<path d="M16 2.84619V6.84619" stroke="#221B38" stroke-miterlimit="10" stroke-linecap="round" stroke-linejoin="round"/>
<path d="M8 2.84619V6.84619" stroke="#221B38" stroke-miterlimit="10" stroke-linecap="round" stroke-linejoin="round"/>
<path d="M5 14.8462H7" stroke="#221B38" stroke-miterlimit="10" stroke-linejoin="round"/>
<path d="M9 14.8462H11" stroke="#221B38" stroke-miterlimit="10" stroke-linejoin="round"/>
<path d="M13 14.8462H15" stroke="#221B38" stroke-miterlimit="10" stroke-linejoin="round"/>
<path d="M17 14.8462H19" stroke="#221B38" stroke-miterlimit="10" stroke-linejoin="round"/>
<path d="M5 18.8462H7" stroke="#221B38" stroke-miterlimit="10" stroke-linejoin="round"/>
<path d="M9 18.8462H11" stroke="#221B38" stroke-miterlimit="10" stroke-linejoin="round"/>
<path d="M13 18.8462H15" stroke="#221B38" stroke-miterlimit="10" stroke-linejoin="round"/>
<path d="M17 18.8462H19" stroke="#221B38" stroke-miterlimit="10" stroke-linejoin="round"/>
</svg>
