<svg width="16" height="16" viewBox="0 0 16 16" fill="none" xmlns="http://www.w3.org/2000/svg">
<path d="M11.2649 2.61565L11.2649 2.61566C12.9871 2.38248 14.2637 3.3547 14.7264 4.61071C15.1789 5.83913 14.8513 7.33756 13.4439 8.2211L13.3851 8.60063H13.8563C14.1913 8.60063 14.4777 8.86513 14.4777 9.20942V10.8157C14.4777 11.16 14.1913 11.4245 13.8563 11.4245H12.9476L12.8178 12.2629C12.8177 12.2632 12.8177 12.2635 12.8176 12.2638C12.6195 13.6012 10.8506 14.0423 9.99474 13.0198C9.68858 12.6593 9.56476 12.1877 9.65818 11.727C9.65823 11.7267 9.65829 11.7265 9.65834 11.7262L10.2891 8.52256L5.84991 7.91688H4.46758L2.66303 8.85621C2.47248 8.95543 2.24256 8.9508 2.0561 8.84323L11.2649 2.61565ZM11.2649 2.61565L11.2632 2.61591M11.2649 2.61565L11.2632 2.61591M11.2632 2.61591L5.84794 3.38889H4.46236L2.6543 2.48345L2.65428 2.48344M11.2632 2.61591L2.65428 2.48344M2.65428 2.48344C2.46359 2.38797 2.23588 2.39533 2.05189 2.50337L2.05184 2.5034M2.65428 2.48344L2.05184 2.5034M2.05184 2.5034C1.86703 2.61197 1.75 2.80885 1.75 3.02555M2.05184 2.5034L1.75 3.02555M1.75 3.02555V8.31861M1.75 3.02555V8.31861M1.75 8.31861C1.75 8.53707 1.86889 8.73525 2.05607 8.84322L1.75 8.31861ZM11.589 12.0802L11.5888 12.0819C11.5484 12.3551 11.1499 12.4801 10.9516 12.2427L10.9517 12.2427L10.9502 12.241C10.8827 12.1616 10.8574 12.0613 10.8773 11.9637L10.8777 11.9618L10.8777 11.9618L10.8782 11.9594L11.523 8.68481C11.6031 8.69075 11.6832 8.69371 11.7632 8.69371C11.8817 8.69371 11.9997 8.68721 12.1166 8.6744L11.589 12.0802ZM13.3735 5.60843L13.3738 5.60844L13.3735 5.59697C13.3492 4.64688 12.6417 4.10427 11.9076 4.02891C11.2276 3.95911 10.4831 4.28566 10.1954 5.06329H6.51439V4.52419L11.4449 3.82042L11.4466 3.82016L11.4469 3.82012L11.4484 3.8199L11.4512 3.81947C12.4148 3.67786 13.1624 4.17919 13.4927 4.86662C13.8221 5.55233 13.735 6.41787 13.0094 7.03123C12.5847 7.38235 12.0227 7.53728 11.467 7.45399L11.467 7.45401L11.4587 7.45283L11.4587 7.45281L11.4567 7.45254L6.51439 6.77819V6.28087H10.2536C10.5995 6.99839 11.3362 7.26911 11.9926 7.1677C12.6986 7.05864 13.3552 6.51202 13.3735 5.60843ZM3.69128 4.37025V6.94214L2.99282 7.30573V4.02048L3.69128 4.37025ZM5.27157 6.6993H4.9341V4.60647H5.27157V6.6993ZM11.3392 5.60338C11.3392 5.40684 11.5065 5.23184 11.7306 5.22957C11.8806 5.23611 11.9749 5.29035 12.0324 5.35277C12.0933 5.41881 12.1266 5.5088 12.1266 5.60341C12.1266 5.69802 12.0932 5.78803 12.0323 5.85407C11.9748 5.9165 11.8805 5.97071 11.7306 5.97723C11.5066 5.97496 11.3392 5.79996 11.3392 5.60338ZM13.2349 10.207H13.1362L13.1965 9.81821H13.2349L13.2349 10.207Z" stroke="#828282" stroke-width="0.5"/>
</svg>
