<svg width="16" height="16" viewBox="0 0 16 16" fill="none" xmlns="http://www.w3.org/2000/svg">
<path d="M8.00667 1.33325H8H7.99334C5.52666 1.33325 3.41333 3.29992 3.33333 5.67325C3.31333 6.39992 3.52666 7.19325 3.82666 7.80659C3.82666 7.80659 3.83333 7.81325 3.83333 7.81992L7.41334 14.3266C7.53334 14.5533 7.76667 14.6666 8 14.6666C8.23334 14.6666 8.46667 14.5533 8.58667 14.3266L12.1667 7.81992C12.1667 7.81325 12.1733 7.80659 12.1733 7.80659C12.4733 7.19325 12.6867 6.39992 12.6667 5.67325C12.5867 3.29992 10.4733 1.33325 8.00667 1.33325Z" stroke="#828282" stroke-miterlimit="10" stroke-linecap="round" stroke-linejoin="round"/>
<path d="M8.00004 7.66659C8.92051 7.66659 9.66671 6.92039 9.66671 5.99992C9.66671 5.07945 8.92051 4.33325 8.00004 4.33325C7.07957 4.33325 6.33337 5.07945 6.33337 5.99992C6.33337 6.92039 7.07957 7.66659 8.00004 7.66659Z" stroke="#828282" stroke-miterlimit="10" stroke-linecap="round" stroke-linejoin="round"/>
</svg>
