<svg width="40" height="40" viewBox="0 0 40 40" fill="none" xmlns="http://www.w3.org/2000/svg">
<rect width="40" height="40" rx="4" fill="#FAF9FD"/>
<mask id="path-2-inside-1_154_1465" fill="white">
<path fill-rule="evenodd" clip-rule="evenodd" d="M21.8701 12.89L21.5601 10.44C21.5301 10.19 21.3201 10 21.0601 10H17.9501C17.7001 10 17.4801 10.19 17.4501 10.44L17.1801 12.59C17.1601 12.77 17.0301 12.93 16.8601 12.99C16.0201 13.3 15.2201 13.78 14.5301 14.4L12.2501 13.44C12.0201 13.34 11.7501 13.43 11.6201 13.65L10.0601 16.35C9.94011 16.57 10.0001 16.85 10.2001 17L12.1701 18.49C11.9601 19.5 11.9601 20.53 12.1601 21.51H12.1701L10.2001 23C10.0001 23.15 9.94011 23.43 10.0701 23.65L11.6301 26.35C11.7601 26.57 12.0301 26.66 12.2601 26.56L14.5401 25.6L14.5301 25.61C14.9001 25.94 15.3201 26.24 15.7701 26.5C16.2201 26.76 16.6801 26.97 17.1601 27.13V27.11L17.4701 29.56C17.4801 29.81 17.7001 30 17.9501 30H21.0701C21.3201 30 21.5301 29.81 21.5701 29.56L21.8401 27.41C21.8601 27.23 21.9901 27.07 22.1601 27.01C23.0001 26.7 23.8001 26.22 24.4901 25.6L26.7701 26.56C27.0001 26.66 27.2701 26.57 27.4001 26.35L28.9601 23.65C29.0901 23.43 29.0301 23.15 28.8301 23L26.8601 21.51C27.0701 20.5 27.0701 19.47 26.8701 18.49H26.8601L28.8101 17C29.0101 16.85 29.0701 16.57 28.9401 16.35L27.3801 13.65C27.2501 13.43 26.9801 13.34 26.7501 13.44L24.4801 14.4L24.4901 14.39C24.1201 14.06 23.7001 13.76 23.2501 13.5C22.8001 13.24 22.3401 13.03 21.8601 12.87"/>
</mask>
<path fill-rule="evenodd" clip-rule="evenodd" d="M21.8701 12.89L21.5601 10.44C21.5301 10.19 21.3201 10 21.0601 10H17.9501C17.7001 10 17.4801 10.19 17.4501 10.44L17.1801 12.59C17.1601 12.77 17.0301 12.93 16.8601 12.99C16.0201 13.3 15.2201 13.78 14.5301 14.4L12.2501 13.44C12.0201 13.34 11.7501 13.43 11.6201 13.65L10.0601 16.35C9.94011 16.57 10.0001 16.85 10.2001 17L12.1701 18.49C11.9601 19.5 11.9601 20.53 12.1601 21.51H12.1701L10.2001 23C10.0001 23.15 9.94011 23.43 10.0701 23.65L11.6301 26.35C11.7601 26.57 12.0301 26.66 12.2601 26.56L14.5401 25.6L14.5301 25.61C14.9001 25.94 15.3201 26.24 15.7701 26.5C16.2201 26.76 16.6801 26.97 17.1601 27.13V27.11L17.4701 29.56C17.4801 29.81 17.7001 30 17.9501 30H21.0701C21.3201 30 21.5301 29.81 21.5701 29.56L21.8401 27.41C21.8601 27.23 21.9901 27.07 22.1601 27.01C23.0001 26.7 23.8001 26.22 24.4901 25.6L26.7701 26.56C27.0001 26.66 27.2701 26.57 27.4001 26.35L28.9601 23.65C29.0901 23.43 29.0301 23.15 28.8301 23L26.8601 21.51C27.0701 20.5 27.0701 19.47 26.8701 18.49H26.8601L28.8101 17C29.0101 16.85 29.0701 16.57 28.9401 16.35L27.3801 13.65C27.2501 13.43 26.9801 13.34 26.7501 13.44L24.4801 14.4L24.4901 14.39C24.1201 14.06 23.7001 13.76 23.2501 13.5C22.8001 13.24 22.3401 13.03 21.8601 12.87" fill="white"/>
<path d="M21.5601 10.44L20.5672 10.5591L20.568 10.5655L21.5601 10.44ZM17.4501 10.44L18.4423 10.5646L18.443 10.5591L17.4501 10.44ZM17.1801 12.59L16.1879 12.4654L16.187 12.4725L16.1862 12.4796L17.1801 12.59ZM16.8601 12.99L16.5273 12.047L16.5206 12.0494L16.5139 12.0518L16.8601 12.99ZM14.5301 14.4L14.142 15.3216L14.7267 15.5678L15.1985 15.1438L14.5301 14.4ZM12.2501 13.44L11.8514 14.3571L11.862 14.3616L12.2501 13.44ZM11.6201 13.65L10.7591 13.1412L10.7542 13.1497L11.6201 13.65ZM10.0601 16.35L9.19424 15.8497L9.18809 15.8604L9.18221 15.8711L10.0601 16.35ZM10.2001 17L10.8033 16.2024L10.8001 16.2L10.2001 17ZM12.1701 18.49L13.1492 18.6936L13.278 18.0741L12.7733 17.6924L12.1701 18.49ZM12.1601 21.51L11.1803 21.71L11.3436 22.51H12.1601V21.51ZM12.1701 21.51L12.7733 22.3076L15.15 20.51H12.1701V21.51ZM10.2001 23L10.8001 23.8L10.8033 23.7976L10.2001 23ZM10.0701 23.65L10.936 23.1497L10.931 23.1413L10.0701 23.65ZM11.6301 26.35L10.7642 26.8503L10.7692 26.8587L11.6301 26.35ZM12.2601 26.56L11.872 25.6383L11.8614 25.6429L12.2601 26.56ZM14.5401 25.6L15.2472 26.3071L14.152 24.6784L14.5401 25.6ZM14.5301 25.61L13.823 24.9029L13.0744 25.6516L13.8645 26.3563L14.5301 25.61ZM17.1601 27.13L16.8439 28.0787L18.1601 28.5174V27.13H17.1601ZM17.1601 27.11L18.1522 26.9845L16.1601 27.11H17.1601ZM17.4701 29.56L18.4693 29.52L18.4676 29.4771L18.4622 29.4345L17.4701 29.56ZM21.5701 29.56L22.5575 29.718L22.5602 29.7013L22.5623 29.6846L21.5701 29.56ZM21.8401 27.41L22.8323 27.5346L22.8332 27.5275L22.834 27.5204L21.8401 27.41ZM22.1601 27.01L22.4929 27.953L22.4996 27.9506L22.5063 27.9482L22.1601 27.01ZM24.4901 25.6L24.8782 24.6784L24.2936 24.4322L23.8217 24.8562L24.4901 25.6ZM26.7701 26.56L27.1689 25.6429L27.1582 25.6384L26.7701 26.56ZM27.4001 26.35L28.2611 26.8588L28.266 26.8503L27.4001 26.35ZM28.9601 23.65L28.0991 23.1412L28.0942 23.1497L28.9601 23.65ZM28.8301 23L28.2269 23.7976L28.2301 23.8L28.8301 23ZM26.8601 21.51L25.881 21.3064L25.7522 21.9259L26.2569 22.3076L26.8601 21.51ZM26.8701 18.49L27.8499 18.29L27.6866 17.49H26.8701V18.49ZM26.8601 18.49L26.253 17.6954L23.9043 19.49H26.8601V18.49ZM28.8101 17L28.2101 16.2L28.203 16.2054L28.8101 17ZM28.9401 16.35L28.0742 16.8503L28.0792 16.8587L28.9401 16.35ZM27.3801 13.65L28.246 13.1497L28.241 13.1413L27.3801 13.65ZM26.7501 13.44L27.1396 14.3611L27.1488 14.3571L26.7501 13.44ZM24.4801 14.4L23.773 13.6929L24.8696 15.321L24.4801 14.4ZM24.4901 14.39L25.1972 15.0971L25.9459 14.3484L25.1557 13.6437L24.4901 14.39ZM22.8622 12.7645L22.5522 10.3145L20.568 10.5655L20.878 13.0155L22.8622 12.7645ZM22.553 10.3209C22.4627 9.56841 21.8265 9 21.0601 9V11C20.8138 11 20.5975 10.8116 20.5672 10.5591L22.553 10.3209ZM21.0601 9H17.9501V11H21.0601V9ZM17.9501 9C17.2062 9 16.549 9.55618 16.4572 10.3209L18.443 10.5591C18.4112 10.8238 18.194 11 17.9501 11V9ZM16.4579 10.3154L16.1879 12.4654L18.1723 12.7146L18.4423 10.5646L16.4579 10.3154ZM16.1862 12.4796C16.1988 12.3663 16.2435 12.275 16.2968 12.2086C16.35 12.1425 16.4264 12.0826 16.5273 12.047L17.1929 13.933C17.7161 13.7484 18.1106 13.2709 18.174 12.7004L16.1862 12.4796ZM16.5139 12.0518C15.5546 12.4059 14.6454 12.952 13.8617 13.6562L15.1985 15.1438C15.7948 14.608 16.4856 14.1941 17.2063 13.9282L16.5139 12.0518ZM14.9182 13.4784L12.6382 12.5184L11.862 14.3616L14.142 15.3216L14.9182 13.4784ZM12.6488 12.5229C11.9426 12.2159 11.1384 12.4996 10.7592 13.1413L12.481 14.1587C12.3618 14.3604 12.0976 14.4641 11.8514 14.3571L12.6488 12.5229ZM10.7542 13.1497L9.19424 15.8497L10.926 16.8503L12.486 14.1503L10.7542 13.1497ZM9.18221 15.8711C8.82613 16.524 8.99965 17.3497 9.60011 17.8L10.8001 16.2C11.0006 16.3503 11.0541 16.616 10.938 16.8289L9.18221 15.8711ZM9.59687 17.7976L11.5669 19.2876L12.7733 17.6924L10.8033 16.2024L9.59687 17.7976ZM11.191 18.2864C10.9536 19.4287 10.953 20.596 11.1803 21.71L13.1399 21.31C12.9673 20.464 12.9667 19.5713 13.1492 18.6936L11.191 18.2864ZM12.1601 22.51H12.1701V20.51H12.1601V22.51ZM11.5669 20.7124L9.59687 22.2024L10.8033 23.7976L12.7733 22.3076L11.5669 20.7124ZM9.60011 22.2C8.999 22.6508 8.81549 23.4925 9.20918 24.1587L10.931 23.1413C11.0647 23.3675 11.0012 23.6492 10.8001 23.8L9.60011 22.2ZM9.20424 24.1503L10.7642 26.8503L12.496 25.8497L10.936 23.1497L9.20424 24.1503ZM10.7692 26.8587C11.1484 27.5004 11.9526 27.7841 12.6588 27.4771L11.8614 25.6429C12.1076 25.5359 12.3718 25.6396 12.491 25.8413L10.7692 26.8587ZM12.6482 27.4816L14.9282 26.5216L14.152 24.6784L11.872 25.6384L12.6482 27.4816ZM13.833 24.8929L13.823 24.9029L15.2372 26.3171L15.2472 26.3071L13.833 24.8929ZM13.8645 26.3563C14.2895 26.7353 14.7657 27.0746 15.2698 27.3659L16.2704 25.6341C15.8745 25.4054 15.5108 25.1447 15.1957 24.8637L13.8645 26.3563ZM15.2698 27.3659C15.7742 27.6573 16.2957 27.8959 16.8439 28.0787L17.4763 26.1813C17.0646 26.0441 16.666 25.8627 16.2704 25.6341L15.2698 27.3659ZM18.1601 27.13V27.11H16.1601V27.13H18.1601ZM16.168 27.2355L16.478 29.6855L18.4622 29.4345L18.1522 26.9845L16.168 27.2355ZM16.4709 29.6C16.5047 30.4455 17.2246 31 17.9501 31V29C18.1756 29 18.4555 29.1745 18.4693 29.52L16.4709 29.6ZM17.9501 31H21.0701V29H17.9501V31ZM21.0701 31C21.8455 31 22.4454 30.4186 22.5575 29.718L20.5827 29.402C20.6148 29.2014 20.7947 29 21.0701 29V31ZM22.5623 29.6846L22.8323 27.5346L20.8479 27.2854L20.5779 29.4354L22.5623 29.6846ZM22.834 27.5204C22.8214 27.6337 22.7767 27.725 22.7234 27.7914C22.6702 27.8575 22.5938 27.9174 22.4929 27.953L21.8273 26.067C21.3042 26.2516 20.9096 26.7291 20.8462 27.2996L22.834 27.5204ZM22.5063 27.9482C23.4656 27.5941 24.3748 27.048 25.1585 26.3438L23.8217 24.8562C23.2254 25.392 22.5346 25.8059 21.8139 26.0718L22.5063 27.9482ZM24.102 26.5216L26.382 27.4816L27.1582 25.6384L24.8782 24.6784L24.102 26.5216ZM26.3714 27.4771C27.0776 27.7841 27.8818 27.5004 28.261 26.8587L26.5392 25.8413C26.6584 25.6396 26.9226 25.5359 27.1688 25.6429L26.3714 27.4771ZM28.266 26.8503L29.826 24.1503L28.0942 23.1497L26.5342 25.8497L28.266 26.8503ZM29.821 24.1587C30.2147 23.4925 30.0312 22.6508 29.4301 22.2L28.2301 23.8C28.029 23.6492 27.9655 23.3675 28.0992 23.1413L29.821 24.1587ZM29.4333 22.2024L27.4633 20.7124L26.2569 22.3076L28.2269 23.7976L29.4333 22.2024ZM27.8392 21.7136C28.0767 20.5713 28.0773 19.404 27.8499 18.29L25.8903 18.69C26.063 19.536 26.0636 20.4287 25.881 21.3064L27.8392 21.7136ZM26.8701 17.49H26.8601V19.49H26.8701V17.49ZM27.4673 19.2846L29.4173 17.7946L28.203 16.2054L26.253 17.6954L27.4673 19.2846ZM29.4101 17.8C30.0112 17.3492 30.1947 16.5075 29.801 15.8413L28.0792 16.8587C27.9455 16.6325 28.009 16.3508 28.2101 16.2L29.4101 17.8ZM29.806 15.8497L28.246 13.1497L26.5142 14.1503L28.0742 16.8503L29.806 15.8497ZM28.241 13.1413C27.8618 12.4996 27.0576 12.2159 26.3514 12.5229L27.1488 14.3571C26.9026 14.4641 26.6384 14.3604 26.5192 14.1587L28.241 13.1413ZM26.3606 12.519L24.0906 13.479L24.8696 15.321L27.1396 14.361L26.3606 12.519ZM25.1872 15.1071L25.1972 15.0971L23.783 13.6829L23.773 13.6929L25.1872 15.1071ZM25.1557 13.6437C24.7308 13.2647 24.2545 12.9254 23.7504 12.6341L22.7498 14.3659C23.1457 14.5946 23.5095 14.8553 23.8245 15.1363L25.1557 13.6437ZM23.7504 12.6341C23.246 12.3427 22.7246 12.1041 22.1763 11.9213L21.5439 13.8187C21.9557 13.9559 22.3542 14.1373 22.7498 14.3659L23.7504 12.6341Z" fill="#420D8B" mask="url(#path-2-inside-1_154_1465)"/>
<path d="M21.8701 12.89L21.5601 10.44C21.5301 10.19 21.3201 10 21.0601 10H17.9501C17.7001 10 17.4801 10.19 17.4501 10.44L17.1801 12.59C17.1601 12.77 17.0301 12.93 16.8601 12.99C16.0201 13.3 15.2201 13.78 14.5301 14.4L12.2501 13.44C12.0201 13.34 11.7501 13.43 11.6201 13.65L10.0601 16.35C9.94011 16.57 10.0001 16.85 10.2001 17L12.1701 18.49C11.9601 19.5 11.9601 20.53 12.1601 21.51H12.1701L10.2001 23C10.0001 23.15 9.94011 23.43 10.0701 23.65L11.6301 26.35C11.7601 26.57 12.0301 26.66 12.2601 26.56L14.5401 25.6L14.5301 25.61C14.9001 25.94 15.3201 26.24 15.7701 26.5C16.2201 26.76 16.6801 26.97 17.1601 27.13V27.11L17.4701 29.56C17.4801 29.81 17.7001 30 17.9501 30H21.0701C21.3201 30 21.5301 29.81 21.5701 29.56L21.8401 27.41C21.8601 27.23 21.9901 27.07 22.1601 27.01C23.0001 26.7 23.8001 26.22 24.4901 25.6L26.7701 26.56C27.0001 26.66 27.2701 26.57 27.4001 26.35L28.9601 23.65C29.0901 23.43 29.0301 23.15 28.8301 23L26.8601 21.51C27.0701 20.5 27.0701 19.47 26.8701 18.49H26.8601L28.8101 17C29.0101 16.85 29.0701 16.57 28.9401 16.35L27.3801 13.65C27.2501 13.43 26.9801 13.34 26.7501 13.44L24.4801 14.4L24.4901 14.39C24.1201 14.06 23.7001 13.76 23.2501 13.5C22.8001 13.24 22.3401 13.03 21.8601 12.87" stroke="#420D8B" stroke-miterlimit="10" stroke-linecap="round" stroke-linejoin="round"/>
<path d="M19.51 24C21.7191 24 23.51 22.2091 23.51 20C23.51 17.7909 21.7191 16 19.51 16C17.3009 16 15.51 17.7909 15.51 20C15.51 22.2091 17.3009 24 19.51 24Z" stroke="#221B38" stroke-miterlimit="10" stroke-linecap="round" stroke-linejoin="round"/>
</svg>
