<svg width="40" height="40" viewBox="0 0 40 40" fill="none" xmlns="http://www.w3.org/2000/svg">
<rect width="40" height="40" rx="4" fill="#FAF9FD"/>
<path d="M27 30H13C12.45 30 12 29.55 12 29V20H28V29C28 29.55 27.55 30 27 30Z" fill="white" stroke="#420D8B" stroke-linecap="round" stroke-linejoin="round"/>
<path d="M29 20H11C10.45 20 10 19.55 10 19V17C10 16.45 10.45 16 11 16H29C29.55 16 30 16.45 30 17V19C30 19.55 29.55 20 29 20Z" stroke="#420D8B" stroke-linecap="round" stroke-linejoin="round"/>
<path d="M20 16C21.81 15.99 23.23 15.64 24.13 15.34C25.29 14.96 26.28 14.47 27.11 13.7C27.5 13.34 27.83 12.92 27.95 12.43C28.08 11.88 27.92 11.29 27.55 10.85C27.18 10.41 26.62 10.12 26.02 10.03C25.54 9.96001 25.03 10.01 24.61 10.24C24.25 10.44 23.97 10.75 23.75 11.08C23.28 11.79 23.06 12.6 22.66 13.34C22.12 14.34 21.31 14.98 20.87 15.34C20.54 15.63 20.23 15.85 20 16Z" stroke="#221B38" stroke-linecap="round" stroke-linejoin="round"/>
<path d="M20.0002 16C18.1902 15.99 16.7702 15.64 15.8702 15.34C14.7102 14.97 13.7102 14.47 12.8902 13.71C12.5002 13.35 12.1602 12.93 12.0502 12.44C11.9102 11.89 12.0702 11.3 12.4402 10.85C12.8102 10.41 13.3702 10.12 13.9702 10.03C14.4502 9.96001 14.9602 10.01 15.3802 10.24C15.7402 10.44 16.0202 10.75 16.2402 11.08C16.7102 11.79 16.9302 12.6 17.3302 13.34C17.8702 14.34 18.6802 14.98 19.1202 15.34C19.4602 15.63 19.7702 15.85 20.0002 16Z" stroke="#221B38" stroke-linecap="round" stroke-linejoin="round"/>
<path d="M20 16V30" stroke="#221B38" stroke-linecap="square" stroke-linejoin="round"/>
<path d="M20 15C20.28 15 20.5 15.22 20.5 15.5V16H19.5V15.5C19.5 15.22 19.72 15 20 15Z" stroke="#221B38" stroke-linecap="round"/>
</svg>
