<svg width="22" height="24" viewBox="0 0 22 24" fill="none" xmlns="http://www.w3.org/2000/svg">
<g clip-path="url(#clip0_1053_11701)">
<path d="M17.5156 10.04C16.9001 6.59 14.1573 4 10.8624 4C8.24639 4 5.97434 5.64 4.84284 8.04C2.1182 8.36 3.05176e-05 10.91 3.05176e-05 14C3.05176e-05 17.31 2.43502 20 5.43122 20H17.1988C19.6972 20 21.7248 17.76 21.7248 15C21.7248 12.36 19.8691 10.22 17.5156 10.04ZM17.1988 18H5.43122C3.43073 18 1.81043 16.21 1.81043 14C1.81043 11.95 3.19538 10.24 5.03294 10.03L6.0015 9.92L6.4541 8.97C7.31404 7.14 8.99771 6 10.8624 6C13.234 6 15.2798 7.86 15.7414 10.43L16.013 11.93L17.3979 12.04C18.8101 12.14 19.9144 13.45 19.9144 15C19.9144 16.65 18.6924 18 17.1988 18ZM7.24162 13H9.54988V16H12.175V13H14.4832L10.8624 9L7.24162 13Z" fill="black"/>
</g>
<defs>
<clipPath id="clip0_1053_11701">
<rect width="21.7248" height="24" fill="white"/>
</clipPath>
</defs>
</svg>
