<svg width="49" height="48" viewBox="0 0 49 48" fill="none" xmlns="http://www.w3.org/2000/svg">
<rect x="0.5" width="48" height="48" rx="8" fill="#350A70"/>
<g clip-path="url(#clip0_756_5651)">
<path d="M35.3991 33.8125H13.5907C12.9882 33.8125 12.5 34.3007 12.5 34.9037C12.5 35.5057 12.9882 35.9939 13.5907 35.9939H35.3986C36.0011 35.9939 36.4893 35.5057 36.4893 34.9037C36.4888 34.3007 36.0006 33.8125 35.3991 33.8125Z" fill="#F1E8FD"/>
<path d="M14.9536 30.9772C14.3511 30.9772 13.8629 31.4653 13.8629 32.0679C13.8629 32.6704 14.3511 33.1591 14.9536 33.1591H34.0358C34.6383 33.1591 35.1265 32.6704 35.1265 32.0679C35.1265 31.4653 34.6383 30.9772 34.0358 30.9772H33.7636V21.1629H34.0358C34.3375 21.1629 34.5806 20.9188 34.5806 20.6181C34.5806 20.3173 34.3365 20.0732 34.0358 20.0732H14.9536C14.6523 20.0732 14.4088 20.3173 14.4088 20.6181C14.4088 20.9188 14.6529 21.1629 14.9536 21.1629H15.2263V30.9767H14.9536V30.9772ZM31.5822 21.1629V30.9767H28.3111V21.1629H31.5822ZM26.1297 21.1629V30.9767H22.8586V21.1629H26.1297ZM17.4067 21.1629H20.6777V30.9767H17.4067V21.1629Z" fill="#F1E8FD"/>
<path d="M13.5907 19.0931H35.3986C35.4022 19.0931 35.4063 19.0931 35.4093 19.0931C36.0124 19.0931 36.5 18.605 36.5 18.0024C36.5 17.5234 36.1916 17.1175 35.7632 16.9704L24.943 12.1016C24.6586 11.9739 24.3333 11.9739 24.0484 12.1016L13.1434 17.0082C12.6741 17.2196 12.4163 17.7292 12.5245 18.2317C12.6323 18.7341 13.0765 19.0931 13.5907 19.0931Z" fill="#F1E8FD"/>
</g>
<defs>
<clipPath id="clip0_756_5651">
<rect width="24" height="24" fill="white" transform="translate(12.5 12)"/>
</clipPath>
</defs>
</svg>
