<svg width="49" height="48" viewBox="0 0 49 48" fill="none" xmlns="http://www.w3.org/2000/svg">
<rect x="0.5" width="48" height="48" rx="8" fill="#350A70"/>
<g clip-path="url(#clip0_756_5640)">
<path d="M36.3597 22.0439C36.6472 21.2903 36.4884 20.404 35.8821 19.7977L28.7023 12.6178C27.8798 11.7953 26.5415 11.7954 25.7191 12.6178L17.6472 20.6898H14.6094C13.4463 20.6898 12.5 21.636 12.5 22.7991V33.8906C12.5 35.0537 13.4463 35.9999 14.6094 35.9999H34.3906C35.5537 35.9999 36.5 35.0537 36.5 33.8906V22.7991C36.5 22.533 36.45 22.2785 36.3597 22.0439ZM34.8325 20.7367C34.6899 20.7062 34.5422 20.6898 34.3906 20.6898H32.867L33.8263 19.7305L34.8325 20.7367ZM32.8319 18.7362L30.8783 20.6898H28.8895L31.8375 17.7417L32.8319 18.7362ZM26.7135 13.6122C26.8506 13.4751 27.0307 13.4065 27.2107 13.4065C27.3908 13.4065 27.5708 13.4751 27.7079 13.6122L30.8432 16.7474L26.9008 20.6898H19.6359L26.7135 13.6122ZM35.0938 33.8906C35.0938 34.2783 34.7783 34.5937 34.3906 34.5937H14.6094C14.2217 34.5937 13.9062 34.2783 13.9062 33.8906V22.7991C13.9062 22.4114 14.2217 22.096 14.6094 22.096H34.3906C34.7783 22.096 35.0938 22.4114 35.0938 22.7991V33.8906Z" fill="#F1E8FD"/>
<path d="M15.2656 31.0596H18.5423V32.4658H15.2656V31.0596Z" fill="#F1E8FD"/>
<path d="M20.3296 31.0596H23.6062V32.4658H20.3296V31.0596Z" fill="#F1E8FD"/>
<path d="M25.3937 31.0596H28.6703V32.4658H25.3937V31.0596Z" fill="#F1E8FD"/>
<path d="M30.4576 31.0596H33.7343V32.4658H30.4576V31.0596Z" fill="#F1E8FD"/>
<path d="M18.8875 23.9707H16.4844C15.8382 23.9707 15.3125 24.4964 15.3125 25.1426V27.0176C15.3125 27.6638 15.8382 28.1895 16.4844 28.1895H18.8875C19.5337 28.1895 20.0594 27.6638 20.0594 27.0176V25.1426C20.0594 24.4964 19.5337 23.9707 18.8875 23.9707ZM18.6531 26.7832H16.7188V25.377H18.6531V26.7832Z" fill="#F1E8FD"/>
</g>
<defs>
<clipPath id="clip0_756_5640">
<rect width="24" height="24" fill="white" transform="translate(12.5 12)"/>
</clipPath>
</defs>
</svg>
