<svg width="49" height="48" viewBox="0 0 49 48" fill="none" xmlns="http://www.w3.org/2000/svg">
<rect x="0.5" width="48" height="48" rx="8" fill="#350A70"/>
<path d="M19.4876 14.0004C19.2282 14.0081 18.982 14.1166 18.8011 14.3028L14.8072 18.2976C14.7139 18.3904 14.6399 18.5006 14.5894 18.6221C14.5389 18.7436 14.5129 18.8739 14.5129 19.0055C14.5129 19.1371 14.5389 19.2674 14.5894 19.3889C14.6399 19.5104 14.7139 19.6208 14.8072 19.7136L18.8011 23.7085C18.8925 23.8075 19.0029 23.8869 19.1257 23.9421C19.2486 23.9973 19.3813 24.027 19.516 24.0296C19.6506 24.0322 19.7844 24.0074 19.9093 23.9569C20.0341 23.9064 20.1475 23.8313 20.2425 23.7358C20.3375 23.6404 20.4123 23.5267 20.4622 23.4016C20.5122 23.2765 20.5364 23.1426 20.5332 23.0079C20.5301 22.8732 20.4998 22.7406 20.4441 22.6179C20.3884 22.4953 20.3085 22.3852 20.2091 22.2943L17.9235 20.0082H33.4839C33.7449 20.0025 33.9933 19.8947 34.1759 19.7081C34.3585 19.5214 34.4607 19.2706 34.4607 19.0095C34.4607 18.7483 34.3585 18.4976 34.1759 18.3109C33.9933 18.1243 33.7449 18.0166 33.4839 18.0108H17.9157L20.2091 15.7169C20.3538 15.577 20.4529 15.3966 20.4933 15.1994C20.5337 15.0021 20.5136 14.7973 20.4356 14.6117C20.3576 14.4261 20.2253 14.2684 20.0561 14.1593C19.887 14.0502 19.6888 13.9948 19.4876 14.0004ZM29.488 23.9893C29.2889 23.9894 29.0943 24.0489 28.9293 24.1604C28.7643 24.2719 28.6364 24.43 28.562 24.6147C28.4875 24.7995 28.47 25.0022 28.5117 25.197C28.5533 25.3917 28.6523 25.5696 28.7957 25.7077L31.0813 27.9918H15.5209C15.388 27.9889 15.2557 28.0126 15.132 28.0615C15.0083 28.1104 14.8956 28.1835 14.8006 28.2765C14.7055 28.3695 14.63 28.4806 14.5784 28.6033C14.5268 28.7259 14.5002 28.8575 14.5002 28.9906C14.5002 29.1236 14.5268 29.2553 14.5784 29.3779C14.63 29.5005 14.7055 29.6116 14.8006 29.7047C14.8956 29.7977 15.0083 29.8708 15.132 29.9197C15.2557 29.9685 15.388 29.9921 15.5209 29.9892H31.0891L28.7957 32.2831C28.7002 32.3754 28.6241 32.4858 28.5718 32.6079C28.5195 32.73 28.492 32.8614 28.4911 32.9942C28.4901 33.127 28.5157 33.2587 28.5662 33.3815C28.6168 33.5044 28.6913 33.6159 28.7855 33.7096C28.8797 33.8032 28.9916 33.8772 29.1146 33.9271C29.2377 33.977 29.3695 34.0018 29.5023 34.0001C29.6351 33.9984 29.7662 33.9702 29.888 33.9172C30.0098 33.8642 30.1198 33.7875 30.2115 33.6915L34.2055 29.7025C34.2988 29.6097 34.3728 29.4994 34.4233 29.3779C34.4738 29.2564 34.4998 29.1261 34.4998 28.9945C34.4998 28.8629 34.4738 28.7326 34.4233 28.6111C34.3728 28.4896 34.2988 28.3792 34.2055 28.2864L30.2115 24.2917C30.1176 24.195 30.005 24.1185 29.8807 24.0665C29.7564 24.0145 29.6228 23.9883 29.488 23.9893Z" fill="#F1E8FD"/>
</svg>
