<svg width="24" height="24" viewBox="0 0 24 24" fill="none" xmlns="http://www.w3.org/2000/svg">
<path d="M10.28 2.5625L3.28 7.6325C2.48 8.2125 2 9.1625 2 10.1725V18.9025C2 20.6125 3.34 22.0025 5 22.0025H19C20.66 22.0025 22 20.6125 22 18.9025V10.1725C22 9.1625 21.52 8.2125 20.72 7.6325L13.72 2.5625C12.69 1.8125 11.31 1.8125 10.28 2.5625Z" fill="#F1E8FD" stroke="#221B38" stroke-miterlimit="10" stroke-linecap="round" stroke-linejoin="round"/>
<path d="M16 12.002C16.5523 12.002 17 11.5543 17 11.002C17 10.4498 16.5523 10.002 16 10.002C15.4477 10.002 15 10.4498 15 11.002C15 11.5543 15.4477 12.002 16 12.002Z" fill="#F1E8FD" stroke="#221B38" stroke-miterlimit="10" stroke-linecap="round" stroke-linejoin="round"/>
<path d="M16 18.002C16.5523 18.002 17 17.5543 17 17.002C17 16.4498 16.5523 16.002 16 16.002C15.4477 16.002 15 16.4498 15 17.002C15 17.5543 15.4477 18.002 16 18.002Z" stroke="#221B38" stroke-miterlimit="10" stroke-linecap="round" stroke-linejoin="round"/>
<path d="M8 12.002C8.55228 12.002 9 11.5543 9 11.002C9 10.4498 8.55228 10.002 8 10.002C7.44772 10.002 7 10.4498 7 11.002C7 11.5543 7.44772 12.002 8 12.002Z" stroke="#221B38" stroke-miterlimit="10" stroke-linecap="round" stroke-linejoin="round"/>
<path d="M8 18.002C8.55228 18.002 9 17.5543 9 17.002C9 16.4498 8.55228 16.002 8 16.002C7.44772 16.002 7 16.4498 7 17.002C7 17.5543 7.44772 18.002 8 18.002Z" stroke="#221B38" stroke-miterlimit="10" stroke-linecap="round" stroke-linejoin="round"/>
</svg>
