<svg width="24" height="24" viewBox="0 0 24 24" fill="none" xmlns="http://www.w3.org/2000/svg">
<path d="M3 6.99956H20V4.26216C20 3.61731 19.3987 3.14105 18.771 3.28875L3 6.99956Z" fill="#F1E8FD" stroke="#7E60A7" stroke-linecap="round" stroke-linejoin="round"/>
<path d="M21 21H3C2.45 21 2 20.55 2 20V8C2 7.45 2.45 7 3 7H21C21.55 7 22 7.45 22 8V20C22 20.55 21.55 21 21 21Z" fill="#F1E8FD" stroke="#7E60A7" stroke-linecap="round" stroke-linejoin="round"/>
<path d="M22 16H18C16.9 16 16 15.1 16 14C16 12.9 16.9 12 18 12H22V16Z" fill="#F1E8FD" stroke="#7E60A7" stroke-linecap="round" stroke-linejoin="round"/>
</svg>
