<svg width="24" height="24" viewBox="0 0 24 24" fill="none" xmlns="http://www.w3.org/2000/svg">
<path fill-rule="evenodd" clip-rule="evenodd" d="M12 1C12.5523 1 13 1.44772 13 2V14C13 14.5523 12.5523 15 12 15C11.4477 15 11 14.5523 11 14V2C11 1.44772 11.4477 1 12 1Z" fill="#420D8B"/>
<path fill-rule="evenodd" clip-rule="evenodd" d="M9.38973 4.15675C10.2735 3.22285 11.7273 2.85247 13.0299 3.06335C14.3548 3.27787 15.5701 4.1157 15.9575 5.40209C16.1168 5.9309 15.8172 6.48872 15.2884 6.648C14.7596 6.80728 14.2018 6.50772 14.0425 5.9789C13.93 5.60528 13.4852 5.16312 12.7102 5.03764C11.9171 4.90923 11.1763 5.17564 10.8392 5.53481C10.832 5.54252 10.8246 5.55012 10.8171 5.5576C10.8192 5.55554 10.8202 5.55453 10.8202 5.55455C10.8203 5.55462 10.7963 5.57998 10.7624 5.62524C10.7224 5.67851 10.6787 5.7459 10.6442 5.81901C10.5715 5.97283 10.5783 6.05805 10.6001 6.11307L10.601 6.11541C10.6117 6.14278 10.6409 6.20338 10.7883 6.3145C10.9538 6.43927 11.181 6.56529 11.5426 6.7592L11.5497 6.76302V6.76305C11.8509 6.92771 12.0311 6.99119 12.3035 7.08512L12.318 7.09011C12.6182 7.19361 12.9916 7.32235 13.5934 7.60452C14.8046 8.16851 15.2057 8.52785 15.4512 8.90974C15.4558 8.91694 15.4604 8.9242 15.4648 8.93152C16.054 9.90199 15.6942 10.8437 15.5771 11.0916C15.3016 11.7003 14.8241 12.0857 14.4382 12.3195C14.0483 12.5558 13.6687 12.6865 13.4998 12.7446C13.2785 12.8228 11.7423 13.3247 10.1531 12.6768C9.28641 12.3248 8.782 11.7937 8.57324 11.5182C8.28011 11.1591 8.13732 10.808 8.0637 10.6116C7.86978 10.0945 8.13178 9.51808 8.6489 9.32416C9.16602 9.13024 9.74244 9.39225 9.93636 9.90937C9.98119 10.0289 10.0339 10.1472 10.1282 10.2603C10.1415 10.2762 10.1542 10.2925 10.1664 10.3091C10.1907 10.3423 10.4218 10.6274 10.906 10.8239L10.9078 10.8246C11.3396 11.0008 11.7921 11.0251 12.1741 10.9898C12.3621 10.9724 12.5229 10.9414 12.6411 10.9131C12.6999 10.899 12.747 10.8858 12.7804 10.8758C12.7971 10.8708 12.8102 10.8666 12.8194 10.8636L12.83 10.86C12.8315 10.8595 12.8325 10.8592 12.8331 10.859L12.8337 10.8588L12.8449 10.8547V10.8548C12.9984 10.8021 13.2054 10.728 13.4018 10.609C13.6028 10.4872 13.7106 10.367 13.7562 10.2644C13.7602 10.2554 13.7643 10.2465 13.7686 10.2377C13.7697 10.2346 13.7717 10.229 13.7742 10.2211C13.7808 10.1995 13.7877 10.1702 13.7908 10.1379C13.7959 10.0851 13.7906 10.0385 13.767 9.99084C13.7561 9.98084 13.7347 9.96251 13.6984 9.9358C13.5701 9.84133 13.2991 9.6736 12.748 9.41708L12.7454 9.41586C12.2392 9.17843 11.9421 9.07603 11.6702 8.98229L11.6515 8.97587C11.3448 8.87009 11.0408 8.76386 10.594 8.51995L10.5844 8.51479C10.2592 8.34043 9.89216 8.14361 9.58427 7.91149C9.25443 7.66281 8.92884 7.32874 8.73951 6.84675C8.4419 6.09223 8.6287 5.40293 8.8359 4.96448C9.03178 4.54998 9.28886 4.26013 9.38973 4.15675Z" fill="#420D8B"/>
<path fill-rule="evenodd" clip-rule="evenodd" d="M1 19C1 18.4477 1.44772 18 2 18H9C9.55228 18 10 18.4477 10 19C10 19.5523 9.55228 20 9 20H2C1.44772 20 1 19.5523 1 19Z" fill="#420D8B"/>
<path fill-rule="evenodd" clip-rule="evenodd" d="M14 19C14 18.4477 14.4477 18 15 18H22C22.5523 18 23 18.4477 23 19C23 19.5523 22.5523 20 22 20H15C14.4477 20 14 19.5523 14 19Z" fill="#420D8B"/>
<path fill-rule="evenodd" clip-rule="evenodd" d="M5.70711 15.2929C6.09763 15.6834 6.09763 16.3166 5.70711 16.7071L3.41421 19L5.70711 21.2929C6.09763 21.6834 6.09763 22.3166 5.70711 22.7071C5.31658 23.0976 4.68342 23.0976 4.29289 22.7071L1.29289 19.7071C0.90237 19.3166 0.90237 18.6834 1.29289 18.2929L4.29289 15.2929C4.68342 14.9024 5.31658 14.9024 5.70711 15.2929Z" fill="#420D8B"/>
<path fill-rule="evenodd" clip-rule="evenodd" d="M18.2929 15.2929C18.6834 14.9024 19.3166 14.9024 19.7071 15.2929L22.7071 18.2929C23.0976 18.6834 23.0976 19.3166 22.7071 19.7071L19.7071 22.7071C19.3166 23.0976 18.6834 23.0976 18.2929 22.7071C17.9024 22.3166 17.9024 21.6834 18.2929 21.2929L20.5858 19L18.2929 16.7071C17.9024 16.3166 17.9024 15.6834 18.2929 15.2929Z" fill="#420D8B"/>
</svg>
