<svg width="24" height="25" viewBox="0 0 24 25" fill="none" xmlns="http://www.w3.org/2000/svg">
<path fill-rule="evenodd" clip-rule="evenodd" d="M8 6.84619V3.84619C8 3.29619 8.45 2.84619 9 2.84619H20C20.55 2.84619 21 3.29619 21 3.84619V17.8462C21 18.3962 20.55 18.8462 20 18.8462H16V7.84619C16 7.29619 15.55 6.84619 15 6.84619H8Z" stroke="#828282" stroke-linecap="round" stroke-linejoin="round"/>
<path fill-rule="evenodd" clip-rule="evenodd" d="M15 22.8462H4C3.45 22.8462 3 22.3962 3 21.8462V7.84619C3 7.29619 3.45 6.84619 4 6.84619H15C15.55 6.84619 16 7.29619 16 7.84619V21.8462C16 22.3962 15.55 22.8462 15 22.8462Z" stroke="#828282" stroke-linecap="round" stroke-linejoin="round"/>
</svg>
