<svg width="131" height="28" viewBox="0 0 131 28" fill="none" xmlns="http://www.w3.org/2000/svg">
<g clip-path="url(#clip0_1_1555)">
<path d="M44.2847 19.3532C44.4033 19.39 44.522 19.4156 44.6406 19.4304C44.7592 19.4378 44.8779 19.4414 44.9966 19.4414C45.2933 19.4414 45.5787 19.4009 45.8531 19.3201C46.1276 19.2393 46.3834 19.1253 46.6208 18.9783C46.8655 18.824 47.0806 18.6402 47.266 18.427C47.4587 18.2065 47.6146 17.9639 47.7332 17.6994L49.958 19.9156C49.6763 20.3124 49.3499 20.669 48.9791 20.985C48.6158 21.3011 48.219 21.5694 47.7889 21.7899C47.3661 22.0104 46.9174 22.1758 46.4428 22.2861C45.9756 22.4036 45.4935 22.4624 44.9966 22.4624C44.1586 22.4624 43.3687 22.3081 42.6271 21.9994C41.893 21.6906 41.2477 21.2607 40.6915 20.7094C40.1427 20.1581 39.7089 19.5039 39.3899 18.7468C39.0711 17.9823 38.9116 17.1443 38.9116 16.2329C38.9116 15.2994 39.0711 14.4468 39.3899 13.6749C39.7089 12.9031 40.1427 12.2453 40.6915 11.7014C41.2477 11.1574 41.893 10.7348 42.6271 10.4334C43.3687 10.132 44.1586 9.98134 44.9966 9.98134C45.4935 9.98134 45.9792 10.0402 46.4539 10.1578C46.9285 10.2754 47.3772 10.4444 47.7999 10.6649C48.2301 10.8855 48.6306 11.1574 49.0014 11.4809C49.3721 11.7969 49.6985 12.1535 49.9803 12.5503L44.2847 19.3532ZM45.8421 13.1458C45.7012 13.0943 45.5603 13.0612 45.4194 13.0465C45.2859 13.0317 45.1449 13.0244 44.9966 13.0244C44.5813 13.0244 44.1882 13.1016 43.8174 13.256C43.454 13.403 43.1352 13.6161 42.8608 13.8954C42.5937 14.1748 42.3824 14.5129 42.2266 14.9099C42.0709 15.2994 41.9931 15.7404 41.9931 16.2329C41.9931 16.3432 41.9967 16.4682 42.0041 16.6078C42.0189 16.7475 42.0375 16.8908 42.0598 17.0378C42.0895 17.1774 42.1228 17.3135 42.1599 17.4458C42.197 17.578 42.2452 17.6957 42.3045 17.7986L45.8421 13.1458ZM57.4892 22.2419C56.755 22.2419 56.0653 22.106 55.4201 21.834C54.7749 21.5547 54.2075 21.1761 53.718 20.6983C53.2361 20.2132 52.8541 19.6509 52.5723 19.0114C52.2979 18.3719 52.1606 17.6883 52.1606 16.9607V13.4544H50.6811V10.4555H52.1606V5.73645H55.1865V10.4555H59.792V13.4544H55.1865V16.9607C55.1865 17.2767 55.2458 17.5744 55.3644 17.8537C55.4831 18.1257 55.6462 18.3646 55.8539 18.5703C56.0616 18.7761 56.3064 18.9415 56.5882 19.0665C56.87 19.1842 57.1703 19.243 57.4892 19.243H59.792V22.2419H57.4892ZM73.041 22.2419H72.3068L71.1276 20.6212C70.8384 20.8784 70.5306 21.121 70.2043 21.3489C69.8854 21.5694 69.548 21.7641 69.192 21.9333C68.836 22.0949 68.4689 22.2235 68.0907 22.3192C67.7199 22.4147 67.3417 22.4624 66.956 22.4624C66.1179 22.4624 65.3282 22.3228 64.5865 22.0434C63.8523 21.7641 63.2071 21.3599 62.6509 20.8306C62.1021 20.294 61.6683 19.6398 61.3493 18.868C61.0305 18.0962 60.871 17.2178 60.871 16.2329C60.871 15.3141 61.0305 14.4725 61.3493 13.708C61.6683 12.9362 62.1021 12.2747 62.6509 11.7234C63.2071 11.1721 63.8523 10.7458 64.5865 10.4444C65.3282 10.1357 66.1179 9.98134 66.956 9.98134C67.3417 9.98134 67.7236 10.0291 68.1018 10.1247C68.48 10.2202 68.8472 10.3525 69.2031 10.5216C69.5591 10.6907 69.8965 10.8891 70.2155 11.117C70.5417 11.3448 70.8458 11.5911 71.1276 11.8557L72.3068 10.4555H73.041V22.2419ZM69.9819 16.2329C69.9819 15.8213 69.9003 15.4244 69.7371 15.0421C69.5813 14.6526 69.3663 14.3108 69.0919 14.0167C68.8174 13.7154 68.4948 13.4765 68.124 13.3001C67.7607 13.1163 67.3713 13.0244 66.956 13.0244C66.5407 13.0244 66.1477 13.0943 65.7769 13.2339C65.4135 13.3736 65.0945 13.5794 64.8201 13.8514C64.5532 14.1233 64.3418 14.4614 64.1861 14.8657C64.0304 15.2627 63.9524 15.7184 63.9524 16.2329C63.9524 16.7475 64.0304 17.2069 64.1861 17.6111C64.3418 18.0081 64.5532 18.3425 64.8201 18.6145C65.0945 18.8864 65.4135 19.0923 65.7769 19.2319C66.1477 19.3716 66.5407 19.4414 66.956 19.4414C67.3713 19.4414 67.7607 19.3532 68.124 19.1768C68.4948 18.993 68.8174 18.7541 69.0919 18.4601C69.3663 18.1588 69.5813 17.8169 69.7371 17.4347C69.9003 17.0451 69.9819 16.6445 69.9819 16.2329ZM88.426 20.6212C87.6843 21.2532 86.8537 21.7384 85.9341 22.0765C85.0145 22.4147 84.0615 22.5837 83.0751 22.5837C82.3188 22.5837 81.5882 22.4844 80.8837 22.2861C80.1865 22.0949 79.5302 21.8229 78.9147 21.4701C78.3065 21.11 77.7503 20.6799 77.246 20.1801C76.7417 19.6803 76.3079 19.129 75.9445 18.5263C75.5884 17.9162 75.3104 17.2656 75.1101 16.5748C74.9174 15.8764 74.8209 15.1524 74.8209 14.4026C74.8209 13.6529 74.9174 12.9289 75.1101 12.2306C75.3104 11.5323 75.5884 10.8818 75.9445 10.279C76.3079 9.66895 76.7417 9.11399 77.246 8.61416C77.7503 8.11433 78.3065 7.688 78.9147 7.33518C79.5302 6.975 80.1865 6.69936 80.8837 6.50824C81.5882 6.30978 82.3188 6.21055 83.0751 6.21055C84.0615 6.21055 85.0145 6.37961 85.9341 6.71774C86.8537 7.04851 87.6843 7.53364 88.426 8.17313L86.7351 10.9296C86.2678 10.4297 85.7153 10.0475 85.0775 9.78288C84.4397 9.51092 83.7723 9.37494 83.0751 9.37494C82.3706 9.37494 81.7106 9.50724 81.095 9.77186C80.4795 10.0365 79.9418 10.3966 79.482 10.8524C79.0222 11.3007 78.6588 11.8336 78.3918 12.4511C78.1248 13.0612 77.9913 13.7118 77.9913 14.4026C77.9913 15.0936 78.1248 15.7441 78.3918 16.3543C78.6588 16.9569 79.0222 17.4862 79.482 17.9419C79.9418 18.3977 80.4795 18.7578 81.095 19.0224C81.7106 19.287 82.3706 19.4193 83.0751 19.4193C83.7723 19.4193 84.4397 19.287 85.0775 19.0224C85.7153 18.7505 86.2678 18.3646 86.7351 17.8647L88.426 20.6212ZM92.9981 22.2419H89.9611V10.4334H90.6954L91.6965 11.8336C92.186 11.3926 92.7421 11.0545 93.3651 10.8193C93.9881 10.5767 94.6333 10.4555 95.3007 10.4555H97.9818V13.4544H95.3007C94.9819 13.4544 94.6815 13.5133 94.3997 13.6308C94.1179 13.7484 93.8732 13.9101 93.6655 14.1159C93.4579 14.3218 93.2947 14.5644 93.176 14.8437C93.0573 15.123 92.9981 15.4207 92.9981 15.7368V22.2419ZM110.708 22.2419H109.974L108.795 20.6212C108.505 20.8784 108.198 21.121 107.871 21.3489C107.552 21.5694 107.215 21.7641 106.859 21.9333C106.503 22.0949 106.136 22.2235 105.758 22.3192C105.387 22.4147 105.009 22.4624 104.623 22.4624C103.785 22.4624 102.995 22.3228 102.254 22.0434C101.519 21.7641 100.874 21.3599 100.318 20.8306C99.7691 20.294 99.3352 19.6398 99.0164 18.868C98.6974 18.0962 98.5379 17.2178 98.5379 16.2329C98.5379 15.3141 98.6974 14.4725 99.0164 13.708C99.3352 12.9362 99.7691 12.2747 100.318 11.7234C100.874 11.1721 101.519 10.7458 102.254 10.4444C102.995 10.1357 103.785 9.98134 104.623 9.98134C105.009 9.98134 105.391 10.0291 105.769 10.1247C106.147 10.2202 106.514 10.3525 106.87 10.5216C107.226 10.6907 107.563 10.8891 107.882 11.117C108.209 11.3448 108.513 11.5911 108.795 11.8557L109.974 10.4555H110.708V22.2419ZM107.649 16.2329C107.649 15.8213 107.567 15.4244 107.404 15.0421C107.248 14.6526 107.033 14.3108 106.759 14.0167C106.484 13.7154 106.162 13.4765 105.791 13.3001C105.428 13.1163 105.038 13.0244 104.623 13.0244C104.208 13.0244 103.815 13.0943 103.444 13.2339C103.08 13.3736 102.761 13.5794 102.487 13.8514C102.22 14.1233 102.009 14.4614 101.853 14.8657C101.697 15.2627 101.619 15.7184 101.619 16.2329C101.619 16.7475 101.697 17.2069 101.853 17.6111C102.009 18.0081 102.22 18.3425 102.487 18.6145C102.761 18.8864 103.08 19.0923 103.444 19.2319C103.815 19.3716 104.208 19.4414 104.623 19.4414C105.038 19.4414 105.428 19.3532 105.791 19.1768C106.162 18.993 106.484 18.7541 106.759 18.4601C107.033 18.1588 107.248 17.8169 107.404 17.4347C107.567 17.0451 107.649 16.6445 107.649 16.2329ZM116.893 22.2419H113.856V13.4324H112.377V10.4334H113.856V9.87109C113.856 9.14339 113.993 8.4598 114.267 7.8203C114.55 7.18082 114.931 6.62586 115.413 6.15542C115.903 5.67765 116.47 5.30277 117.115 5.0308C117.761 4.75148 118.45 4.61183 119.185 4.61183H121.466V7.61082H119.185C118.858 7.61082 118.554 7.66962 118.273 7.78724C117.998 7.89749 117.757 8.05553 117.549 8.26134C117.349 8.4598 117.189 8.69869 117.071 8.978C116.952 9.24998 116.893 9.54767 116.893 9.87109V10.4334H120.62V13.4324H116.893V22.2419ZM128.039 22.2419C127.306 22.2419 126.616 22.106 125.971 21.834C125.325 21.5547 124.758 21.1761 124.269 20.6983C123.786 20.2132 123.404 19.6509 123.123 19.0114C122.848 18.3719 122.711 17.6883 122.711 16.9607V13.4544H121.232V10.4555H122.711V5.73645H125.737V10.4555H130.343V13.4544H125.737V16.9607C125.737 17.2767 125.797 17.5744 125.915 17.8537C126.033 18.1257 126.196 18.3646 126.405 18.5703C126.612 18.7761 126.857 18.9415 127.138 19.0665C127.421 19.1842 127.721 19.243 128.039 19.243H130.343V22.2419H128.039Z" fill="#431583"/>
<path d="M29.4465 5.26283C28.3345 3.35392 25.8718 2.69988 23.9458 3.80199C22.0198 4.9041 21.3599 7.34501 22.4719 9.25391L29.4008 21.1488C30.5128 23.0577 32.9755 23.7117 34.9015 22.6096C36.8275 21.5075 37.4874 19.0666 36.3754 17.1577L29.4465 5.26283Z" fill="#431583"/>
<path d="M17.7419 5.68855C16.6299 3.77964 14.1672 3.1256 12.2412 4.22771C10.3152 5.32982 9.65533 7.77073 10.7673 9.67963L17.6962 21.5745C18.8082 23.4834 21.2709 24.1374 23.1969 23.0353C25.1229 21.9332 25.7828 19.4923 24.6708 17.5834L17.7419 5.68855Z" fill="#431583"/>
<path d="M16.9158 10.7055C18.2088 8.9121 17.7901 6.41939 15.9806 5.13789C14.1712 3.85638 11.6562 4.27136 10.3632 6.06477L2.34108 17.1919C1.04812 18.9853 1.46681 21.478 3.27626 22.7595C5.08571 24.041 7.60071 23.626 8.89368 21.8326L16.9158 10.7055Z" fill="#431583"/>
</g>
<defs>
<clipPath id="clip0_1_1555">
<rect width="131" height="28" fill="white"/>
</clipPath>
</defs>
</svg>
