<svg width="100" height="100" viewBox="0 0 100 100" fill="none" xmlns="http://www.w3.org/2000/svg">
<path d="M79.1668 91.6667H20.8334C18.5417 91.6667 16.6667 89.7917 16.6667 87.5V50H83.3334V87.5C83.3334 89.7917 81.4584 91.6667 79.1668 91.6667Z" fill="white" stroke="#420D8B" stroke-width="3" stroke-linecap="round" stroke-linejoin="round"/>
<path d="M87.4999 50H12.4999C10.2083 50 8.33325 48.125 8.33325 45.8334V37.5C8.33325 35.2084 10.2083 33.3334 12.4999 33.3334H87.4999C89.7916 33.3334 91.6666 35.2084 91.6666 37.5V45.8334C91.6666 48.125 89.7916 50 87.4999 50Z" stroke="#420D8B" stroke-width="3" stroke-linecap="round" stroke-linejoin="round"/>
<path d="M50 33.3334C57.5417 33.2918 63.4583 31.8334 67.2083 30.5834C72.0417 29.0001 76.1667 26.9584 79.625 23.7501C81.25 22.2501 82.625 20.5001 83.125 18.4584C83.6667 16.1668 83 13.7084 81.4583 11.8751C79.9167 10.0418 77.5833 8.83342 75.0833 8.45842C73.0833 8.16675 70.9583 8.37509 69.2083 9.33342C67.7083 10.1668 66.5417 11.4584 65.625 12.8334C63.6667 15.7918 62.75 19.1668 61.0833 22.2501C58.8333 26.4168 55.4583 29.0834 53.625 30.5834C52.25 31.7918 50.9583 32.7084 50 33.3334Z" stroke="#420D8B" stroke-width="3" stroke-linecap="round" stroke-linejoin="round"/>
<path d="M50.0009 33.3334C42.4592 33.2918 36.5426 31.8334 32.7926 30.5834C27.9593 29.0418 23.7926 26.9584 20.3759 23.7918C18.7509 22.2918 17.3343 20.5418 16.8759 18.5001C16.2926 16.2084 16.9593 13.7501 18.5009 11.8751C20.0426 10.0418 22.3759 8.83342 24.8759 8.45842C26.8759 8.16675 29.0009 8.37509 30.7509 9.33342C32.2509 10.1668 33.4176 11.4584 34.3343 12.8334C36.2926 15.7918 37.2093 19.1668 38.8759 22.2501C41.1259 26.4168 44.5009 29.0834 46.3342 30.5834C47.7509 31.7918 49.0426 32.7084 50.0009 33.3334Z" stroke="#420D8B" stroke-width="3" stroke-linecap="round" stroke-linejoin="round"/>
<path d="M50 33.3334V91.6667" stroke="#420D8B" stroke-width="3" stroke-linecap="square" stroke-linejoin="round"/>
<path d="M50.0001 29.1666C51.1667 29.1666 52.0834 30.0833 52.0834 31.25V33.3333H47.9167V31.25C47.9167 30.0833 48.8334 29.1666 50.0001 29.1666Z" stroke="#420D8B" stroke-width="3" stroke-linecap="round"/>
</svg>
