<svg width="24" height="24" viewBox="0 0 24 24" fill="none" xmlns="http://www.w3.org/2000/svg">
<path d="M22 20V22V20Z" fill="white"/>
<path d="M22 20V22" stroke="#828282" stroke-linecap="round" stroke-linejoin="round"/>
<path d="M2 20V22V20Z" fill="white"/>
<path d="M2 20V22" stroke="#828282" stroke-linecap="round" stroke-linejoin="round"/>
<path d="M22 16H2L4 11H20L22 16Z" fill="white" stroke="#828282" stroke-linecap="round" stroke-linejoin="round"/>
<path d="M22 16H2V21H22V16Z" stroke="#828282" stroke-linecap="round" stroke-linejoin="round"/>
<path d="M20 2H4V11H20V2Z" stroke="#828282" stroke-linecap="round" stroke-linejoin="round"/>
<path d="M16.5 11H14.5C14.22 11 14 10.78 14 10.5V6.5C14 6.22 14.22 6 14.5 6H16.5C16.78 6 17 6.22 17 6.5V10.5C17 10.78 16.78 11 16.5 11Z" stroke="#828282" stroke-linecap="round" stroke-linejoin="round"/>
<path d="M9.5 11H7.5C7.22 11 7 10.78 7 10.5V6.5C7 6.22 7.22 6 7.5 6H9.5C9.78 6 10 6.22 10 6.5V10.5C10 10.78 9.78 11 9.5 11Z" fill="white" stroke="#828282" stroke-linecap="round" stroke-linejoin="round"/>
</svg>
