<svg width="24" height="24" viewBox="0 0 24 24" fill="none" xmlns="http://www.w3.org/2000/svg">
<path d="M9.5 17H14.5H9.5Z" fill="white"/>
<path d="M9.5 17H14.5" stroke="#828282" stroke-miterlimit="10" stroke-linecap="round" stroke-linejoin="round"/>
<path d="M14.5 20H9.5V21H14.5V20Z" fill="white" stroke="#828282" stroke-miterlimit="10" stroke-linecap="round" stroke-linejoin="round"/>
<path d="M10.36 15H13.64C13.64 15 14.88 13.27 15.75 12.01C16.3 11.19 16.7 10.17 16.7 9.2C16.7 5.84 14.59 4 12 4C9.41005 4 7.30005 5.84 7.30005 9.2C7.30005 10.17 7.69005 11.19 8.25005 12.01C8.39005 12.2 10.36 15 10.36 15Z" fill="white" stroke="#828282" stroke-miterlimit="10" stroke-linecap="round" stroke-linejoin="round"/>
<path d="M12 10.99V15" stroke="#828282" stroke-miterlimit="10" stroke-linecap="round" stroke-linejoin="round"/>
<path d="M12 11C12.5523 11 13 10.5523 13 10C13 9.44772 12.5523 9 12 9C11.4477 9 11 9.44772 11 10C11 10.5523 11.4477 11 12 11Z" stroke="#828282" stroke-miterlimit="10" stroke-linecap="round" stroke-linejoin="round"/>
<path d="M21.9999 8H19.4299" stroke="#828282" stroke-miterlimit="10" stroke-linecap="round" stroke-linejoin="round"/>
<path d="M20.7301 3L18.3301 4.51L20.7301 3Z" fill="white"/>
<path d="M20.7301 3L18.3301 4.51" stroke="#828282" stroke-miterlimit="10" stroke-linecap="round" stroke-linejoin="round"/>
<path d="M4.57 8H2" stroke="#828282" stroke-miterlimit="10" stroke-linecap="round" stroke-linejoin="round"/>
<path d="M5.67002 4.51L3.27002 3" stroke="#828282" stroke-miterlimit="10" stroke-linecap="round" stroke-linejoin="round"/>
</svg>
