<svg width="24" height="24" viewBox="0 0 24 24" fill="none" xmlns="http://www.w3.org/2000/svg">
<path d="M3.01994 14.1496C2.46994 14.1496 2.01994 13.6996 2.01994 13.1496V6.99958C1.98994 6.62958 1.88994 4.37958 2.66994 3.17958C3.13994 2.46958 3.95994 2.02958 4.85994 1.99958C5.79994 1.95958 6.70994 2.39958 7.24994 3.13958C8.19994 4.40958 7.98994 5.97958 7.95994 6.14958C7.87994 6.69958 7.35994 7.06958 6.81994 6.98958C6.27994 6.89958 5.89994 6.38958 5.98994 5.84958C5.98994 5.84958 6.10994 4.94958 5.64994 4.32958C5.48994 4.10958 5.20994 3.97958 4.91994 3.99958C4.79994 3.99958 4.49994 4.03958 4.33994 4.27958C4.02994 4.74958 3.95994 6.13958 4.00994 6.93958V13.1496C4.01994 13.6996 3.56994 14.1496 3.01994 14.1496Z" fill="#828282"/>
<path fill-rule="evenodd" clip-rule="evenodd" d="M7.71007 18.2896C8.10007 18.6796 8.10007 19.3096 7.71007 19.6996L5.71007 21.6996C5.32007 22.0896 4.69007 22.0896 4.30007 21.6996C3.91007 21.3096 3.91007 20.6796 4.30007 20.2896L6.30007 18.2896C6.68007 17.8996 7.32007 17.8996 7.71007 18.2896Z" fill="#828282"/>
<path fill-rule="evenodd" clip-rule="evenodd" d="M16.2901 18.2896C16.6801 17.8996 17.3101 17.8996 17.7001 18.2896L19.7001 20.2896C20.0901 20.6796 20.0901 21.3096 19.7001 21.6996C19.3101 22.0896 18.6801 22.0896 18.2901 21.6996L16.2901 19.6996C15.9001 19.3196 15.9001 18.6796 16.2901 18.2896Z" fill="#828282"/>
<path d="M7 9.51001C6.72614 9.51001 6.5 9.28387 6.5 9.01001C6.5 8.73615 6.72614 8.51001 7 8.51001C7.27713 8.51001 7.5 8.72941 7.5 9.01001V9.02001C7.5 9.28061 7.27713 9.51001 7 9.51001Z" fill="#828282" stroke="#828282"/>
<path d="M21.4953 12.5867C21.499 12.7686 21.5 12.9892 21.4943 13.2386C21.4778 13.9685 21.4044 14.9315 21.1818 15.8865C20.9578 16.8472 20.592 17.7591 20.0181 18.423C19.4597 19.069 18.6897 19.5 17.58 19.5H17.5505H17.521H17.4917H17.4624H17.4333H17.4042H17.3753H17.3464H17.3177H17.289H17.2604H17.232H17.2036H17.1753H17.1471H17.119H17.091H17.0631H17.0353H17.0075H16.9799H16.9524H16.9249H16.8975H16.8703H16.8431H16.816H16.789H16.7621H16.7352H16.7085H16.6818H16.6553H16.6288H16.6024H16.5761H16.5498H16.5237H16.4976H16.4717H16.4458H16.42H16.3942H16.3686H16.343H16.3175H16.2921H16.2668H16.2416H16.2164H16.1914H16.1664H16.1414H16.1166H16.0918H16.0672H16.0425H16.018H15.9936H15.9692H15.9449H15.9206H15.8965H15.8724H15.8484H15.8245H15.8006H15.7768H15.7531H15.7295H15.7059H15.6824H15.659H15.6356H15.6123H15.5891H15.566H15.5429H15.5199H15.497H15.4741H15.4513H15.4285H15.4059H15.3833H15.3607H15.3382H15.3158H15.2935H15.2712H15.249H15.2268H15.2047H15.1827H15.1607H15.1388H15.117H15.0952H15.0735H15.0518H15.0302H15.0087H14.9872H14.9658H14.9444H14.9231H14.9018H14.8806H14.8595H14.8384H14.8174H14.7964H14.7755H14.7547H14.7338H14.7131H14.6924H14.6717H14.6512H14.6306H14.6101H14.5897H14.5693H14.549H14.5287H14.5084H14.4883H14.4681H14.448H14.428H14.408H14.3881H14.3682H14.3483H14.3285H14.3087H14.289H14.2694H14.2497H14.2302H14.2106H14.1911H14.1717H14.1523H14.1329H14.1136H14.0943H14.0751H14.0559H14.0367H14.0176H13.9986H13.9795H13.9605H13.9416H13.9226H13.9038H13.8849H13.8661H13.8473H13.8286H13.8099H13.7912H13.7726H13.754H13.7354H13.7169H13.6984H13.68H13.6615H13.6431H13.6248H13.6064H13.5881H13.5698H13.5516H13.5334H13.5152H13.4971H13.4789H13.4608H13.4428H13.4247H13.4067H13.3887H13.3708H13.3528H13.3349H13.317H13.2992H13.2813H13.2635H13.2457H13.228H13.2102H13.1925H13.1748H13.1571H13.1395H13.1218H13.1042H13.0866H13.069H13.0515H13.0339H13.0164H12.9989H12.9814H12.964H12.9465H12.9291H12.9116H12.8942H12.8769H12.8595H12.8421H12.8248H12.8074H12.7901H12.7728H12.7555H12.7382H12.721H12.7037H12.6865H12.6692H12.652H12.6348H12.6176H12.6004H12.5832H12.566H12.5488H12.5317H12.5145H12.4973H12.4802H12.4631H12.4459H12.4288H12.4117H12.3945H12.3774H12.3603H12.3432H12.3261H12.309H12.2918H12.2747H12.2576H12.2405H12.2234H12.2063H12.1892H12.1721H12.155H12.1379H12.1208H12.1037H12.0865H12.0694H12.0523H12.0352H12.018H12.0009H11.9837H11.9666H11.9494H11.9323H11.9151H11.8979H11.8807H11.8635H11.8463H11.8291H11.8119H11.7947H11.7774H11.7602H11.7429H11.7257H11.7084H11.6911H11.6738H11.6564H11.6391H11.6218H11.6044H11.587H11.5696H11.5522H11.5348H11.5174H11.4999H11.4824H11.4649H11.4474H11.4299H11.4124H11.3948H11.3772H11.3596H11.342H11.3244H11.3067H11.289H11.2713H11.2536H11.2358H11.218H11.2002H11.1824H11.1646H11.1467H11.1288H11.1109H11.093H11.075H11.057H11.039H11.0209H11.0029H10.9847H10.9666H10.9485H10.9303H10.912H10.8938H10.8755H10.8572H10.8389H10.8205H10.8021H10.7836H10.7652H10.7467H10.7281H10.7096H10.6909H10.6723H10.6536H10.6349H10.6162H10.5974H10.5786H10.5597H10.5408H10.5219H10.5029H10.4839H10.4649H10.4458H10.4267H10.4075H10.3883H10.369H10.3497H10.3304H10.311H10.2916H10.2722H10.2527H10.2331H10.2135H10.1939H10.1742H10.1545H10.1347H10.1149H10.095H10.0751H10.0552H10.0352H10.0151H9.99502H9.97487H9.95467H9.93442H9.91412H9.89378H9.87338H9.85292H9.83242H9.81187H9.79126H9.7706H9.74989H9.72912H9.7083H9.68742H9.66649H9.64551H9.62447H9.60337H9.58222H9.56101H9.53974H9.51841H9.49703H9.47559H9.45409H9.43253H9.41091H9.38924H9.3675H9.3457H9.32384H9.30191H9.27993H9.25788H9.23578H9.2136H9.19137H9.16907H9.14671H9.12428H9.10178H9.07923H9.0566H9.03391H9.01115H8.98833H8.96544H8.94248H8.91945H8.89635H8.87319H8.84995H8.82665H8.80327H8.77983H8.75631H8.73272H8.70906H8.68533H8.66152H8.63765H8.6137H8.58967H8.56557H8.5414H8.51715H8.49283H8.46843H8.44395H8.4194H8.39477H8.37007H8.34528H8.32042H8.29548H8.27046H8.24536H8.22018H8.19493H8.16959H8.14417H8.11867H8.09308H8.06742H8.04167H8.01584H7.98993H7.96393H7.93785H7.91169H7.88544H7.8591H7.83268H7.80617H7.77958H7.7529H7.72613H7.69928H7.67233H7.6453H7.61818H7.59097H7.56367H7.53629H7.50881H7.48124H7.45358H7.42582H7.39798H7.37004H7.34201H7.31389H7.28567H7.25736H7.22896H7.20046H7.17187H7.14318H7.11439H7.08551H7.05653H7.02746H6.99828H6.96901H6.93964H6.91018H6.88061H6.85094H6.82118H6.79131H6.76134H6.73128H6.70111H6.67083H6.64046H6.60999C5.45446 19.5 4.64981 19.0641 4.06659 18.4156C3.46841 17.7505 3.08449 16.8387 2.84652 15.8796C2.60982 14.9256 2.52691 13.9636 2.50428 13.2345C2.49654 12.9852 2.49589 12.7648 2.49834 12.5831C2.59803 12.5984 2.70989 12.6154 2.83305 12.6337C3.39997 12.7177 4.20678 12.8297 5.16842 12.9416C7.08951 13.1653 9.63811 13.39 12.13 13.39C14.6173 13.39 17.0989 13.1652 18.9549 12.9414C19.8838 12.8294 20.6582 12.7173 21.201 12.6332C21.3083 12.6165 21.4066 12.601 21.4953 12.5867Z" fill="white" stroke="#828282"/>
</svg>
