<svg width="20" height="21" viewBox="0 0 20 21" fill="none" xmlns="http://www.w3.org/2000/svg">
<path d="M16.6667 17.8945H3.33335C2.69283 17.8945 2.16669 17.3684 2.16669 16.7279V8.89453H17.8334V16.7279C17.8334 17.3684 17.3072 17.8945 16.6667 17.8945Z" fill="#8C44EE" stroke="#8C44EE"/>
<path d="M18.3334 8.39453V5.0612C18.3334 4.14453 17.5834 3.39453 16.6667 3.39453H3.33335C2.41669 3.39453 1.66669 4.14453 1.66669 5.0612V8.39453H18.3334Z" fill="#8C44EE"/>
<path d="M13.3333 2.56055V5.06055" stroke="white" stroke-miterlimit="10" stroke-linecap="round" stroke-linejoin="round"/>
<path d="M6.66669 2.56055V5.06055" stroke="white" stroke-miterlimit="10" stroke-linecap="round" stroke-linejoin="round"/>
<path d="M4.16669 11.7266H5.83335" stroke="white" stroke-miterlimit="10" stroke-linejoin="round"/>
<path d="M7.5 11.7266H9.16667" stroke="white" stroke-miterlimit="10" stroke-linejoin="round"/>
<path d="M10.8333 11.7266H12.5" stroke="white" stroke-miterlimit="10" stroke-linejoin="round"/>
<path d="M14.1667 11.7266H15.8334" stroke="white" stroke-miterlimit="10" stroke-linejoin="round"/>
<path d="M4.16669 15.0605H5.83335" stroke="white" stroke-miterlimit="10" stroke-linejoin="round"/>
<path d="M7.5 15.0605H9.16667" stroke="white" stroke-miterlimit="10" stroke-linejoin="round"/>
<path d="M10.8333 15.0605H12.5" stroke="white" stroke-miterlimit="10" stroke-linejoin="round"/>
<path d="M14.1667 15.0605H15.8334" stroke="white" stroke-miterlimit="10" stroke-linejoin="round"/>
<path d="M18.3334 8.39453H1.66669" stroke="white" stroke-miterlimit="10"/>
</svg>
