<svg width="20" height="21" viewBox="0 0 20 21" fill="none" xmlns="http://www.w3.org/2000/svg">
<path d="M10.0083 1.78711H10H9.99167C6.90833 1.78711 4.26666 4.24544 4.16666 7.21211C4.14166 8.12044 4.40833 9.11211 4.78333 9.87878C4.78333 9.87878 4.79166 9.88711 4.79166 9.89544L9.26667 18.0288C9.41667 18.3121 9.70834 18.4538 10 18.4538C10.2917 18.4538 10.5833 18.3121 10.7333 18.0288L15.2083 9.89544C15.2083 9.88711 15.2167 9.87878 15.2167 9.87878C15.5917 9.11211 15.8583 8.12044 15.8333 7.21211C15.7333 4.24544 13.0917 1.78711 10.0083 1.78711Z" fill="#8C44EE"/>
<path d="M10 9.70378C11.1506 9.70378 12.0834 8.77103 12.0834 7.62044C12.0834 6.46985 11.1506 5.53711 10 5.53711C8.84944 5.53711 7.91669 6.46985 7.91669 7.62044C7.91669 8.77103 8.84944 9.70378 10 9.70378Z" fill="#8C44EE"/>
<path d="M10 9.70378C11.1506 9.70378 12.0834 8.77103 12.0834 7.62044C12.0834 6.46985 11.1506 5.53711 10 5.53711C8.84944 5.53711 7.91669 6.46985 7.91669 7.62044C7.91669 8.77103 8.84944 9.70378 10 9.70378Z" stroke="white" stroke-miterlimit="10" stroke-linecap="round" stroke-linejoin="round"/>
</svg>
