<svg width="24" height="25" viewBox="0 0 24 25" fill="none" xmlns="http://www.w3.org/2000/svg">
<path fill-rule="evenodd" clip-rule="evenodd" d="M8 6.8457V3.8457C8 3.2957 8.45 2.8457 9 2.8457H20C20.55 2.8457 21 3.2957 21 3.8457V17.8457C21 18.3957 20.55 18.8457 20 18.8457H16V7.8457C16 7.2957 15.55 6.8457 15 6.8457H8Z" fill="#E0E0E0" stroke="#E0E0E0" stroke-linecap="round" stroke-linejoin="round"/>
<path fill-rule="evenodd" clip-rule="evenodd" d="M15 22.8457H4C3.45 22.8457 3 22.3957 3 21.8457V7.8457C3 7.2957 3.45 6.8457 4 6.8457H15C15.55 6.8457 16 7.2957 16 7.8457V21.8457C16 22.3957 15.55 22.8457 15 22.8457Z" stroke="#E0E0E0" stroke-linecap="round" stroke-linejoin="round"/>
</svg>
